# xmcd CD database file
#
# Track frame offsets:
#	150
#	11000
#	30270
#	43396
#	65116
#	78728
#	86424
#	103056
#	114736
#	132607
#	147625
#	165394
#	184864
#	201229
#	224926
#	246848
#	265750
#	283306
#	307434
#	322079
#	324778
#	344977
#	354386
#
# Disc length: 4911 seconds
#
# Revision: 0
# Processed by: cddbd v1.5.1PL2 Copyright (c) Steve Scherf et al.
# Submitted via: Feurio! 1.68 - http://www.feurio.com
#
DISCID=83132d17
DTITLE=Janis Joplin - Cry Baby
DYEAR=1900
DGENRE=Blues
TTITLE0=Buried Alive In the Blues
TTITLE1=Hesitation Blues
TTITLE2=Down On Me
TTITLE3=Hey Bo Diddley (live)
TTITLE4=Kansas City Blues
TTITLE5=To Love Somebody
TTITLE6=Little Girl Blue (live)
TTITLE7=Bye, Bye Baby
TTITLE8=Daddy, Daddy, Daddy
TTITLE9=Get It While You Can
TTITLE10=Summertime
TTITLE11=Kozmic Blues
TTITLE12=Move Over
TTITLE13=Ball and Chain
TTITLE14=I Need A Man To Love
TTITLE15=Piece Of My Heart
TTITLE16=Cry Baby
TTITLE17=Catch Me Daddy
TTITLE18=Nobody Knows You When You're..
TTITLE19=Happy Birthday
TTITLE20=Me And Bobby McGee
TTITLE21=Mary Jane
TTITLE22=Flower In The Sun
EXTD=
EXTT0=
EXTT1=
EXTT2=
EXTT3=
EXTT4=
EXTT5=
EXTT6=
EXTT7=
EXTT8=
EXTT9=
EXTT10=
EXTT11=
EXTT12=
EXTT13=
EXTT14=
EXTT15=
EXTT16=
EXTT17=
EXTT18=
EXTT19=
EXTT20=
EXTT21=
EXTT22=
PLAYORDER=
